<svg width="56" height="56" viewBox="0 0 56 56" fill="none" xmlns="http://www.w3.org/2000/svg">
<path opacity="0.6" d="M32.1481 36.7409C32.1481 40.8053 30.3799 44.4794 27.5555 46.9823C25.1214 49.1868 21.9066 50.5186 18.3703 50.5186C10.7696 50.5186 4.59253 44.3416 4.59253 36.7409C4.59253 30.4031 8.90957 25.0298 14.7422 23.4453C16.3266 27.4409 19.7251 30.5179 23.9273 31.6661C25.0755 31.9875 26.2925 32.1483 27.5555 32.1483C28.8185 32.1483 30.0355 31.9875 31.1836 31.6661C31.8036 33.2275 32.1481 34.9498 32.1481 36.7409Z" fill="#5030E5"/>
<path d="M41.3334 18.3706C41.3334 20.1617 40.9889 21.8839 40.3689 23.4454C38.7845 27.4409 35.386 30.518 31.1838 31.6661C30.0356 31.9876 28.8186 32.1483 27.5556 32.1483C26.2926 32.1483 25.0756 31.9876 23.9275 31.6661C19.7252 30.518 16.3267 27.4409 14.7423 23.4454C14.1223 21.8839 13.7778 20.1617 13.7778 18.3706C13.7778 10.7698 19.9549 4.59277 27.5556 4.59277C35.1563 4.59277 41.3334 10.7698 41.3334 18.3706Z" fill="#5030E5"/>
<path opacity="0.4" d="M50.5186 36.7409C50.5186 44.3416 44.3416 50.5186 36.7408 50.5186C33.2046 50.5186 29.9897 49.1868 27.5557 46.9823C30.3801 44.4794 32.1483 40.8053 32.1483 36.7409C32.1483 34.9498 31.8038 33.2275 31.1838 31.6661C35.386 30.5179 38.7846 27.4409 40.369 23.4453C46.2016 25.0298 50.5186 30.4031 50.5186 36.7409Z" fill="#5030E5"/>
</svg>
